<svg width="19" height="19" viewBox="0 0 19 19" fill="none" xmlns="http://www.w3.org/2000/svg">
<path d="M18.8 2.9125C18.8 1.41443 17.5856 0.199999 16.0875 0.199999H12.4708C11.9714 0.199999 11.5667 0.604812 11.5667 1.10417C11.5667 1.60352 11.9714 2.00833 12.4708 2.00833H16.0875C16.5869 2.00833 16.9917 2.41315 16.9917 2.9125V6.52917C16.9917 7.02852 17.3964 7.43333 17.8958 7.43333C18.3952 7.43333 18.8 7.02852 18.8 6.52917V2.9125Z" fill="black"/>
<path d="M18.8 12.4708C18.8 11.9715 18.3952 11.5667 17.8958 11.5667C17.3964 11.5667 16.9917 11.9715 16.9917 12.4708V16.0875C16.9917 16.5869 16.5869 16.9917 16.0875 16.9917H12.4708C11.9714 16.9917 11.5667 17.3965 11.5667 17.8958C11.5667 18.3952 11.9714 18.8 12.4708 18.8H16.0875C17.5856 18.8 18.8 17.5856 18.8 16.0875V12.4708Z" fill="black"/>
<path d="M2.91245 16.9917H6.52912C7.02847 16.9917 7.43328 17.3965 7.43328 17.8958C7.43328 18.3952 7.02847 18.8 6.52912 18.8H2.91245C1.41438 18.8 0.199951 17.5856 0.199951 16.0875V12.4708C0.199951 11.9715 0.604765 11.5667 1.10412 11.5667C1.60347 11.5667 2.00828 11.9715 2.00828 12.4708V16.0875C2.00828 16.5869 2.4131 16.9917 2.91245 16.9917Z" fill="black"/>
<path d="M0.199951 6.52917C0.199951 7.02852 0.604765 7.43333 1.10412 7.43333C1.60347 7.43333 2.00828 7.02852 2.00828 6.52917V2.9125C2.00828 2.41315 2.4131 2.00833 2.91245 2.00833H6.52912C7.02847 2.00833 7.43328 1.60352 7.43328 1.10417C7.43328 0.604812 7.02847 0.199999 6.52912 0.199999H2.91245C1.41438 0.199999 0.199951 1.41443 0.199951 2.9125V6.52917Z" fill="black"/>
</svg>
