<svg width="21" height="21" viewBox="0 0 21 21" fill="none" xmlns="http://www.w3.org/2000/svg">
<path fill-rule="evenodd" clip-rule="evenodd" d="M0 10.5C0 4.70114 4.70114 0 10.5 0C16.2989 0 21 4.70114 21 10.5C21 16.2989 16.2989 21 10.5 21C4.70114 21 0 16.2989 0 10.5ZM6.20264 5.85614C6.34727 5.77228 6.51139 5.72787 6.67857 5.72737C6.84576 5.72687 7.01014 5.77028 7.15527 5.85327L13.3636 9.40036V6.68182C13.3636 6.42866 13.4642 6.18586 13.6432 6.00685C13.8222 5.82784 14.065 5.72727 14.3182 5.72727C14.5713 5.72727 14.8141 5.82784 14.9931 6.00685C15.1722 6.18586 15.2727 6.42866 15.2727 6.68182V14.3182C15.2727 14.5713 15.1722 14.8141 14.9931 14.9931C14.8141 15.1722 14.5713 15.2727 14.3182 15.2727C14.065 15.2727 13.8222 15.1722 13.6432 14.9931C13.4642 14.8141 13.3636 14.5713 13.3636 14.3182V11.5996L7.15527 15.1467C7.01013 15.2296 6.84575 15.273 6.67859 15.2724C6.51144 15.2718 6.34736 15.2274 6.20277 15.1435C6.05819 15.0596 5.93817 14.9392 5.85472 14.7944C5.77128 14.6496 5.72733 14.4853 5.72727 14.3182V6.68182C5.72725 6.51461 5.77115 6.35034 5.85457 6.20543C5.938 6.06052 6.05803 5.94007 6.20264 5.85614Z" fill="#FFA60A"/>
</svg>
