<svg width="21" height="21" viewBox="0 0 21 21" fill="none" xmlns="http://www.w3.org/2000/svg">
<path d="M10.5 0C4.704 0 0 4.704 0 10.5C0 16.296 4.704 21 10.5 21C16.296 21 21 16.296 21 10.5C21 4.704 16.296 0 10.5 0ZM15.9495 14.637C15.9075 14.7315 15.855 14.8155 15.7815 14.889L14.007 16.6635C13.8495 16.821 13.65 16.8945 13.4505 16.8945C13.251 16.8945 13.0515 16.821 12.894 16.6635C12.5895 16.359 12.5895 15.855 12.894 15.5505L13.3245 15.12H7.455C6.09 15.12 4.9875 14.007 4.9875 12.6525V10.794C4.9875 10.3635 5.3445 10.0065 5.775 10.0065C6.2055 10.0065 6.5625 10.3635 6.5625 10.794V12.6525C6.5625 13.146 6.9615 13.545 7.455 13.545H13.3245L12.894 13.1145C12.5895 12.81 12.5895 12.306 12.894 12.0015C13.1985 11.697 13.7025 11.697 14.007 12.0015L15.7815 13.776C15.855 13.8495 15.9075 13.9335 15.9495 14.028C16.0335 14.2275 16.0335 14.448 15.9495 14.637ZM16.0125 10.206C16.0125 10.6365 15.6555 10.9935 15.225 10.9935C14.7945 10.9935 14.4375 10.6365 14.4375 10.206V8.3475C14.4375 7.854 14.0385 7.455 13.545 7.455H7.6755L8.106 7.875C8.4105 8.1795 8.4105 8.6835 8.106 8.988C7.9485 9.1455 7.749 9.219 7.5495 9.219C7.35 9.219 7.1505 9.1455 6.993 8.988L5.2185 7.2135C5.145 7.14 5.0925 7.056 5.0505 6.9615C4.9665 6.7725 4.9665 6.552 5.0505 6.363C5.0925 6.2685 5.145 6.174 5.2185 6.1005L6.993 4.326C7.2975 4.0215 7.8015 4.0215 8.106 4.326C8.4105 4.6305 8.4105 5.1345 8.106 5.439L7.6755 5.8695H13.545C14.91 5.8695 16.0125 6.9825 16.0125 8.337V10.206Z" fill="#FFA60A"/>
</svg>
