<svg width="21" height="21" viewBox="0 0 21 21" fill="none" xmlns="http://www.w3.org/2000/svg">
<path fill-rule="evenodd" clip-rule="evenodd" d="M10.5 21C16.2989 21 21 16.2989 21 10.5C21 4.70101 16.2989 0 10.5 0C4.70101 0 0 4.70101 0 10.5C0 16.2989 4.70101 21 10.5 21ZM6.91508 6.91508C6.3 7.53015 6.3 8.52012 6.3 10.5C6.3 12.4799 6.3 13.4698 6.91508 14.0849C7.53015 14.7 8.52012 14.7 10.5 14.7C12.4799 14.7 13.4698 14.7 14.0849 14.0849C14.7 13.4698 14.7 12.4799 14.7 10.5C14.7 8.52012 14.7 7.53015 14.0849 6.91508C13.4698 6.3 12.4799 6.3 10.5 6.3C8.52012 6.3 7.53015 6.3 6.91508 6.91508Z" fill="#FFA60A"/>
</svg>
